<svg id="Capa_1" data-name="Capa 1" xmlns="http://www.w3.org/2000/svg" viewBox="0 0 550 200"><defs><style>.cls-1{fill:#b0b256;}.cls-2{fill:#495e67;}.cls-3{fill:#014262;}.cls-11,.cls-3{fill-rule:evenodd;}.cls-4{fill:#0081ba;}.cls-5{fill:#f8b133;}.cls-5,.cls-8{stroke:#005980;}.cls-6,.cls-8{fill:#fff;}.cls-7{fill:#005980;}.cls-8{stroke-width:0.97px;}.cls-9{fill:#1d1d1b;}.cls-10{fill:#ceceb8;}.cls-11{fill:#bd1622;}.cls-12{fill:#b1b28f;}</style></defs><title>escenarioFin</title><rect class="cls-1" y="-3.31" width="550" height="199.12"/><path class="cls-2" d="M550,176.6l-.74,0c-9.88,0-9.88-7.57-19.77-7.57s-9.89,7.57-19.77,7.57-9.89-7.57-19.77-7.57-9.88,7.57-19.77,7.57-9.89-7.57-19.77-7.57-9.88,7.57-19.77,7.57-9.88-7.57-19.77-7.57-9.89,7.57-19.77,7.57-9.88-7.57-19.77-7.57c-9.38,0-9.86,6.81-18.34,7.51-8.48-.69-9-7.51-18.34-7.51-9.89,0-9.89,7.57-19.78,7.57s-9.88-7.57-19.77-7.57-9.89,7.57-19.77,7.57-9.89-7.57-19.77-7.57-9.88,7.57-19.77,7.57-9.89-7.57-19.77-7.57-9.88,7.57-19.77,7.57-9.88-7.57-19.76-7.57-9.89,7.57-19.77,7.57-9.89-7.57-19.77-7.57-9.88,7.57-19.77,7.57-9.89-7.57-19.77-7.57-9.88,7.57-19.77,7.57-9.88-7.57-19.77-7.57S48,176.62,38.1,176.62s-9.88-7.57-19.77-7.57c-9.38,0-9.86,6.81-18.34,7.51V201H550Z"/><polyline class="cls-3" points="13.97 146.05 35.03 145.55 74.56 147.97 170.28 147.14 207.68 151.74 212.02 141.74 205.83 116.77 34.58 116.77"/><path class="cls-4" d="M86.63,129.2s-1.22-27.75-78.52-21.48l5.47,26s-6.69,9-1.83,12.53L35,145.55A20.54,20.54,0,1,1,74.56,148l95.72-.83a20.53,20.53,0,1,1,37.39,4.6l5.57.74L212,141.74l-.61-9L217.5,114s9.13-4.48,9.13-14.32C226.63,99.66,137.76,96.08,86.63,129.2Z"/><ellipse class="cls-5" cx="9.03" cy="114.23" rx="3.46" ry="1.97"/><ellipse class="cls-5" cx="10.04" cy="117.59" rx="3.46" ry="1.97"/><ellipse class="cls-5" cx="11.06" cy="120.75" rx="3.46" ry="1.97"/><path class="cls-6" d="M76.55,146.05h88.77s-7.52-7.37.36-11.05c0,0-9.67-1.05-6.8,6.84Z"/><path class="cls-4" d="M159.68,104.14,153,80l8.78.77S100,39.69,39.76,110.4l28.61,7.16S60.46,78.18,147.5,80Z"/><path class="cls-6" d="M218.53,102.85s-71.4-4.36-131.13,28.5c0,0,60.52-28.5,125.39-26.76Z"/><path class="cls-6" d="M85.62,130.77s-1-18.91-45.1-21.81C40.52,109,76.13,112.73,85.62,130.77Z"/><path class="cls-7" d="M153.24,140.95s-.74-.9.25-5.37L73.55,141.4Z"/><ellipse class="cls-8" cx="61.98" cy="101.01" rx="3.96" ry="5.82"/><polyline class="cls-4" points="152.03 105.61 144.97 99.67 146.78 93.43 138.9 106.8 143.95 102.04 150.62 106.2"/><path class="cls-7" d="M113.16,110.27,111.43,96.7c1.21-2.08,4.85-.59,4.85-.59l3.58,13.47,15.2-1.59h.4c-25,4.45-48.48,19.61-48.48,19.61a17.14,17.14,0,0,0-11.72-13.37Z"/><path class="cls-4" d="M37.3,108S31,89.27,23.56,84.52c0,0,9.5,11,12.12,23.47Z"/><ellipse class="cls-4" cx="23.96" cy="84.51" rx="1.21" ry="1.78"/><path class="cls-7" d="M215.49,113.85s-10.82-2.39-45.26,2.4c0,0,41.77-2.22,41.19.34S195,118.91,195,118.91s16,.6,14.76,3.34-6.71,2.1-6.71,2.1l7.52,3.89s3.83-8.93,4.89-14"/><path class="cls-7" d="M12.29,111.11s25.62-5.57,51.81,9.42c0,0-32.31-1.93-48.9,7.49,0,0,8.59-9.41,31.44-10.27,0,0-15.72-4.07-32.16,1.28,0,0,1.89-4.5,25-4.92C39.51,114.11,23.35,109.61,12.29,111.11Z"/><path class="cls-7" d="M155,78.47s-69.15-5.26-82.26,21C72.76,99.51,77.87,70.2,155,78.47Z"/><path class="cls-5" d="M223.15,106.43c2.42-3.58,3.17-5.71,1.54-5.75-1.89,0-5.71,2.91-8.12,6.48s-2.21,6.88-.64,6.48S220.73,110,223.15,106.43Z"/><ellipse class="cls-9" cx="192.12" cy="140.5" rx="19.16" ry="19.28"/><ellipse class="cls-10" cx="192.12" cy="140.5" rx="13.24" ry="13.33"/><path class="cls-11" d="M193.08,130.75c-.53-3.87-1.39-3.87-1.92,0a6.71,6.71,0,0,1-7.86,5.78c-3.8-.69-4.06.14-.59,1.84a6.82,6.82,0,0,1,3,9.35c-1.82,3.44-1.12,4,1.55,1.14a6.65,6.65,0,0,1,9.72,0c2.67,2.82,3.37,2.3,1.55-1.14a6.82,6.82,0,0,1,3-9.35c3.47-1.7,3.21-2.53-.59-1.84A6.71,6.71,0,0,1,193.08,130.75Z"/><ellipse class="cls-12" cx="192.12" cy="140.5" rx="4.5" ry="4.53"/><ellipse class="cls-9" cx="58.02" cy="141.4" rx="19.16" ry="19.28"/><ellipse class="cls-10" cx="58.02" cy="141.4" rx="13.24" ry="13.33"/><path class="cls-11" d="M59,131.65c-.53-3.87-1.39-3.87-1.92,0a6.71,6.71,0,0,1-7.87,5.78c-3.8-.69-4.06.14-.59,1.84a6.82,6.82,0,0,1,3,9.35c-1.82,3.44-1.12,4,1.55,1.14a6.65,6.65,0,0,1,9.72,0c2.67,2.82,3.37,2.3,1.55-1.14a6.82,6.82,0,0,1,3-9.35c3.47-1.7,3.21-2.53-.59-1.84A6.71,6.71,0,0,1,59,131.65Z"/><ellipse class="cls-12" cx="58.02" cy="141.4" rx="4.5" ry="4.53"/></svg>