<svg id="Capa_1" data-name="Capa 1" xmlns="http://www.w3.org/2000/svg" viewBox="0 0 841.89 595.28"><defs><style>.cls-1{fill:#eff9f7;}.cls-2{fill:#a6aeaf;}.cls-3{fill:#b5bebe;}.cls-4{fill:#acb6b4;}.cls-5{fill:#abafaa;}.cls-6{fill:#c4cccb;}.cls-7{fill:#a6abb1;}.cls-8{fill:#b3b9bb;}.cls-9{fill:#b2bcb8;}.cls-10{fill:#e4eae4;}.cls-11{fill:#969c9c;}.cls-12{fill:#e0e7df;}.cls-13{fill:#919a99;}.cls-14{fill:#adb5a4;}.cls-15{fill:#89908d;}.cls-16{fill:#d8e6dd;}.cls-17{fill:#bfcbca;}.cls-18{fill:#b8c4c3;}.cls-19{fill:#a1a3a0;}.cls-20{fill:#818581;}.cls-21{fill:#949a97;}</style></defs><title>Mesa de trabajo 1</title><path class="cls-1" d="M353.48,191.38q0-.66,0-1.32a37.78,37.78,0,0,0,.71-5.36c0-4.92,1.67-8.48,6.41-10.68,5.34-2.48,11.11-4.74,15.37-8.57,3.1-2.79,5.51-3.6,8.85-3,1.54-1.73,3.25-3.49,5.21-3.83,4-.68,8.13-.6,12.21-.84,4.71,1.26,10,.83,13.95,4.13L414.25,166l-2.77.21c-5.87-1.07-9.84,2.24-13.66,5.91l-19.59,12.6-3.66,3.82-1,1.31c-1.23,1-2.41,2-3.71,2.89-2.6,1.71-5.26,3.31-7.9,4.95l-4.42-2.93-1.81,3.45-2.1.89-2.36,1.45-1.39.8-3.1,2.19-6.63,3.85-3.2,2-2.09,1L331,213.24h0l-3.72,2.28-3.59,1.66L322,218.56a3.76,3.76,0,0,1-.63.11L319.74,220l-10.33,6.18c-2.29-.34-4.15-.12-3.82,2.94-2.53,2-5.38,3.67-7.53,6-5.77,6.26-11.24,12.8-16.83,19.23l-8.85,14.34a1,1,0,0,0-.06.55l-1.26,1.79-1,2.68-2,4.06c-4.58,9.78-7.21,20.14-9,30.74l-.5,3.05-1,9.71c-.43,7.18-.9,14.36-1.24,21.54a8.32,8.32,0,0,0,.9,2.74l.09.94L256.07,358a13,13,0,0,0-.65,2.8c-.06,6-.1,11.91,0,17.86.09,5.19.6,10.38.57,15.57-.06,8.54-.53,17.08-.6,25.62-.11,13.61,0,27.23,0,40.84q0,31.09.07,62.19l-3.91.11c0-1.12,0-2.25,0-3.37q.32-80.27.61-160.53c0-17.93-.1-35.85,3.12-53.58.21-.72.45-1.42.62-2.15,3.48-15.15,8.44-29.73,16.62-43.07,2.73-4.44,5.54-8.83,8.32-13.24l-.11-.83h0l.74-.74h0a6,6,0,0,0,1.85-1c7.42-8.43,15.5-16.1,25.12-22,9.42-5.81,18.77-11.73,28.15-17.59,5.58-3.48,11.18-6.92,16.75-10.43C354.78,193.58,356.52,192.54,353.48,191.38Z"/><path class="cls-2" d="M257.2,345.58a8.32,8.32,0,0,1-.9-2.74c.34-7.18.81-14.36,1.24-21.54l1.51,2.2c1-3.87,2-7.44,2.92-11,.55-2.14,1.05-4.29,1.53-6.45,1-4.28,1.63-8.63,2.88-12.82,2.18-7.32,4.76-14.51,7-21.81.22-.72-.65-1.79-1-2.69l8.85-14.34c1.79-1.19,3.84-2.12,5.31-3.62,5.09-5.16,9.43-11.23,15.08-15.63,8.18-6.36,17.29-11.54,25.94-17.31a16.57,16.57,0,0,0,2.73-3c5.57-.51,9.35-4.61,14-7s9.29-5,13.93-7.47h2l0,1.37C349.11,208.45,338,215.09,327,221.93c-10.46,6.51-21.43,12.29-29.91,21.6a135.34,135.34,0,0,0-22.74,34.95l-2.46,5.47q-.33,1.39-.66,2.77L269.3,292l-1.94,6.78L267,300.2q-.07.77-.14,1.54l-2.12,10.44q-.06.78-.11,1.56l-1,4.71-.08,2.08-.24,3.68q-.05,1.14-.11,2.29-.34,5.6-.68,11.2,0,2.26-.08,4.52c-.63-.93-1.71-1.8-1.82-2.79a64.78,64.78,0,0,1-.09-7.22h-1.45c-.27,3.33-.47,6.67-.84,10A19.08,19.08,0,0,1,257.2,345.58Z"/><path class="cls-3" d="M257.2,345.58a19.08,19.08,0,0,0,1-3.39c.37-3.32.57-6.66.84-10h1.45a64.78,64.78,0,0,0,.09,7.22c.11,1,1.19,1.86,1.82,2.79.05,12.61.2,25.22.14,37.83q-.24,52-.62,104c0,1-.14,2-.21,3-3.62.06-3.51-1.37-3.21-4.78.63-7.21-.15-14.55-.26-21.83-.08-5.45,0-10.9,0-16.34q0-5.16,0-10.32c.35-.11,1-.22,1-.34.12-4.66.2-9.33.19-14,0-.22-.77-.45-1.18-.67v-2.25l1.37-1.3-1.36-.95v-1.51l1.36-.95-1.37-1.3V409l1.37-.95-1.37-1.31v-1.5c.49-.58,1.38-1.14,1.41-1.75a79.29,79.29,0,0,0,0-8.49c0-.61-.92-1.17-1.41-1.75l0-1.5c2.51-2.31,2.14-5.76-.72-6.74V383.5c.74-.71,2-1.36,2.11-2.13a44.75,44.75,0,0,0,0-7.75c-.05-.73-.93-1.41-1.44-2.11v-3c.49-.58,1.38-1.15,1.42-1.75a79,79,0,0,0,0-8.53c0-.61-.94-1.17-1.45-1.76l-.93-10Z"/><path class="cls-4" d="M258.24,391.79l0,1.5q0,6,0,12v1.5q0,1.13,0,2.25,0,.75,0,1.5v2.25q0,.75,0,1.51,0,1.12,0,2.25t0,2.25l0,1.49-.7,2.26.72,11.24q0,5.16,0,10.32c0,5.45-.06,10.9,0,16.34.11,7.29.89,14.62.26,21.83-.3,3.41-.42,4.84,3.21,4.78q0,.71,0,1.43l-3.47-.33c0,1.87.12,3.49,0,5.08-.23,2.5,1.09,3,3.17,2.77q0,.74,0,1.48c-4,1.21-3.38,4.15-2.83,7.24l3.1-.39q0,2.21,0,4.42l-3.14-.36c0,3.49,0,6.74,0,10,0,1.53-.22,3.06-.33,4.59l-2.81,0q0-31.1-.07-62.19c0-13.61-.07-27.23,0-40.84.07-8.54.54-17.08.6-25.62,0-5.19-.47-10.38-.57-15.57-.11-6-.06-11.91,0-17.86a13,13,0,0,1,.65-2.8l2.07,0,.11,10.52q0,1.49,0,3l-.71,12q0,.77,0,1.54Z"/><path class="cls-5" d="M424.58,168.47c-1.79,5-2.78,10.71-7.68,13.71-7.52,4.6-15.37,8.67-23.12,12.91-.54.29-1.34.09-2,.12l-2.25-3.69c.35-3.49,3.5-3.64,5.78-4.75,3.37-1.65,3.71-2.68,1.64-5.63a7.87,7.87,0,0,1-.7-2.4c5.22-2.48,10.45-4.91,15.63-7.48a12,12,0,0,0,2.46-2.25l3-2.25Zm-16.45,17.32c3.12-2.27,6.2-4.29,9-6.65,1.44-1.21,1.18-3.21-.94-3a38.22,38.22,0,0,0-9.69,2.43c-.67.25-.94,2.61-.73,3.89C406,183.52,407.12,184.43,408.13,185.79Z"/><path class="cls-6" d="M255.29,305.55c-3.21,17.74-3.07,35.66-3.12,53.58q-.19,80.27-.61,160.53c0,1.12,0,2.25,0,3.37-.5-1.33-1.44-2.66-1.45-4q-.11-58.87,0-117.74c0-20.75-.19-41.5.18-62.24.18-10.06,1.4-20.1,2.26-30.14.1-1.16.91-2.25,1.39-3.38Z"/><path class="cls-7" d="M353.48,191.38c3,1.16,1.3,2.2-.13,3.1-5.57,3.5-11.17,6.94-16.75,10.43-9.39,5.86-18.74,11.78-28.15,17.59-9.62,5.94-17.69,13.6-25.12,22a6,6,0,0,1-1.85,1,12.63,12.63,0,0,1,1.14-3.25c6.65-9.44,15.69-16.28,25.23-22.4C323,210.19,338.26,200.86,353.48,191.38Z"/><path class="cls-8" d="M255.29,305.55h-1.43c2-7.53,3.44-15.23,6-22.54,4.38-12.4,9.55-24.51,17.89-34.92a19.52,19.52,0,0,1,2.11-2l1,1c-2.77,4.41-5.59,8.8-8.32,13.24-8.18,13.33-13.13,27.92-16.62,43.07C255.75,304.13,255.5,304.83,255.29,305.55Z"/><path class="cls-9" d="M360.2,201.72l0-1.36,1.73-2.63c2.64-1.64,5.31-3.24,7.9-4.95,1.31-.86,2.48-1.92,3.72-2.89l-.73,3.78c-1.66.69-2,1.71-.13,2.33,3.26,1.11,6.63,1.9,10,2.82-5.19,4-11.21,4.08-17.33,3.6C363.62,202.28,361.91,202,360.2,201.72Z"/><path class="cls-10" d="M402.26,157.76c-4.08.23-8.21.15-12.21.84-2,.34-3.67,2.1-5.21,3.83-3.35-.57-5.75.23-8.85,3-4.26,3.83-10,6.09-15.37,8.57-4.75,2.21-6.44,5.77-6.41,10.68a37.78,37.78,0,0,1-.71,5.36c-2.17-6.64,0-15,7-18,6.09-2.65,11.4-7.05,17.19-10.43,7.61-4.44,16-5.23,24.59-4.55Q402.25,157.41,402.26,157.76Z"/><path class="cls-11" d="M382.67,198.82c-3.33-.92-6.7-1.72-10-2.82-1.83-.62-1.52-1.64.14-2.33l2.4-.64a13.72,13.72,0,0,0,1.89,1c3.37-4.73,7.76-4.14,12.37-2.48l2.25,3.69-2.76,1-1.85.93Z"/><path class="cls-12" d="M402.26,157.76q0-.34,0-.68c4.55.5,9.27.4,13.59,1.67,4.52,1.32,7.46,5,8.73,9.73l-7.32-1.71-3-.72,1.95-4.16C412.22,158.58,407,159,402.26,157.76Z"/><path class="cls-3" d="M258.24,523c.12-1.53.31-3.06.33-4.59.05-3.25,0-6.5,0-10l3.14.36c0,4.53,0,9.07,0,14.05Z"/><path class="cls-3" d="M261.4,496c-2.09.26-3.4-.26-3.17-2.77.15-1.59,0-3.21,0-5.08l3.47.33Q261.56,492.25,261.4,496Z"/><path class="cls-3" d="M261.69,504.32l-3.1.39c-.55-3.09-1.2-6,2.83-7.24Q261.56,500.9,261.69,504.32Z"/><path class="cls-3" d="M262.49,337.69q.34-5.6.68-11.2Q262.83,332.09,262.49,337.69Z"/><path class="cls-3" d="M264.72,312.18l2.12-10.44Z"/><path class="cls-3" d="M269.3,292l1.89-5.24Z"/><path class="cls-3" d="M271.85,283.95l2.46-5.47Z"/><path class="cls-3" d="M263.6,318.45l1-4.71Z"/><path class="cls-3" d="M263.27,324.2l.24-3.68Z"/><path class="cls-9" d="M387.15,197.18l1.85-.93Z"/><path class="cls-3" d="M267,300.2l.37-1.46Z"/><path class="cls-7" d="M281.48,245.52l-.74.74Z"/><path class="cls-7" d="M280.84,247.09l-1-1,.84.15Z"/><path class="cls-13" d="M272.38,268.71c.36.91,1.23,2,1,2.69-2.25,7.3-4.83,14.49-7,21.81-1.25,4.19-1.92,8.54-2.88,12.82-.48,2.15-1,4.31-1.53,6.45-.92,3.58-1.89,7.15-2.92,11l-1.51-2.2,1-9.71.5-3.05c1.83-10.59,4.46-21,9-30.74l2-4.06,1-2.68,1.26-1.79A1,1,0,0,1,272.38,268.71Z"/><path class="cls-9" d="M330.29,214.82a16.6,16.6,0,0,1-2.73,3c-8.65,5.77-17.76,10.95-25.94,17.31-5.65,4.4-10,10.47-15.08,15.63-1.48,1.5-3.52,2.43-5.31,3.62,5.59-6.43,11.06-13,16.83-19.24,2.15-2.33,5-4,7.53-6l3.82-2.94L319.74,220l1.66-1.34a3.73,3.73,0,0,0,.63-.11l1.63-1.38,3.59-1.66,3-.77Z"/><path class="cls-9" d="M358.2,200.36c-4.64,2.5-9.24,5.07-13.93,7.47s-8.42,6.48-14,7l-.06-.07.74-1.5h0l3.88-2.87,2.09-1,3.2-2,6.63-3.85,3.11-2.19,1.39-.8,2.36-1.45,2.1-.89Z"/><path class="cls-14" d="M378.23,184.76l19.59-12.6h3C397.9,174.1,395,176,392,178c-3.35,2.25-6.68,4.53-10,6.79l-.77.73-3,.08Z"/><path class="cls-14" d="M414.25,166l3,.72-3,2.25-10.5,2.31c1.19-1,2.32-2,3.59-2.89s2.72-1.47,4.08-2.19Z"/><path class="cls-12" d="M411.48,166.25c-1.37.72-2.8,1.34-4.08,2.19s-2.4,1.92-3.59,2.89l-3,.83h-3C401.64,168.49,405.62,165.18,411.48,166.25Z"/><path class="cls-15" d="M378.29,185.6l3-.08-6,7.51-2.4.64.73-3.78,1-1.31Z"/><path class="cls-2" d="M258.14,358l-2.07,0,1.22-11.53.93,10Z"/><path class="cls-12" d="M358.2,200.36l-2.46-2.11,1.81-3.45,4.42,2.93-1.73,2.63Z"/><path class="cls-16" d="M309.41,226.19l-3.82,2.94C305.26,226.07,307.12,225.85,309.41,226.19Z"/><path class="cls-9" d="M378.29,185.6l-3.72,3,3.66-3.82Z"/><path class="cls-16" d="M334.86,210.37,331,213.24Z"/><path class="cls-2" d="M270,273.73l-2,4.06Z"/><path class="cls-16" d="M331,213.25l-.74,1.5-3,.77Z"/><path class="cls-2" d="M259,308.53l-.5,3.05Z"/><path class="cls-16" d="M340.14,207.41l-3.2,2Z"/><path class="cls-12" d="M349.88,201.38l-3.11,2.19Z"/><path class="cls-12" d="M353.63,199.14l-2.36,1.45Z"/><path class="cls-16" d="M323.66,217.18,322,218.56Z"/><path class="cls-16" d="M321.4,218.67,319.74,220Z"/><path class="cls-2" d="M272.32,269.26l-1.26,1.79Z"/><path class="cls-17" d="M257.53,383.5l.71-12c.5.7,1.39,1.38,1.44,2.11a44.75,44.75,0,0,1,0,7.75C259.56,382.15,258.27,382.8,257.53,383.5Z"/><path class="cls-18" d="M258.25,405.28q0-6,0-12c.49.58,1.38,1.14,1.41,1.75a79.29,79.29,0,0,1,0,8.49C259.64,404.14,258.75,404.7,258.25,405.28Z"/><path class="cls-18" d="M258.25,433.78l-.72-11.24.7-2.26,0-1.49c.41.22,1.18.45,1.18.67,0,4.66-.07,9.33-.19,14C259.24,433.57,258.59,433.67,258.25,433.78Z"/><path class="cls-17" d="M258.14,358l.08-1.52c.5.58,1.41,1.15,1.44,1.75a79,79,0,0,1,0,8.53c0,.61-.92,1.17-1.42,1.75Z"/><path class="cls-17" d="M258.24,391.79l-.72-6.74C260.38,386,260.75,389.48,258.24,391.79Z"/><path class="cls-18" d="M258.25,416.53q0-1.12,0-2.25l1.36.95Z"/><path class="cls-18" d="M258.26,412.78v-2.25l1.37,1.3Z"/><path class="cls-18" d="M258.25,409q0-1.13,0-2.25l1.37,1.31Z"/><path class="cls-3" d="M258.23,420.28l-.7,2.26Z"/><path class="cls-19" d="M375.25,193l6-7.51.77-.73c1.19-.07,2.55.21,3.54-.27,3.62-1.78,7.12-3.82,10.66-5.77a7.87,7.87,0,0,0,.7,2.4c2.06,2.95,1.73,4-1.64,5.63-2.27,1.11-5.43,1.27-5.78,4.75-4.62-1.66-9-2.25-12.37,2.48A13.72,13.72,0,0,1,375.25,193Z"/><path class="cls-20" d="M396.23,178.74c-3.54,1.94-7,4-10.66,5.77-1,.49-2.35.2-3.54.27,3.34-2.26,6.68-4.54,10-6.79,2.92-2,5.85-3.9,8.78-5.84l3-.83,10.5-2.31a11.94,11.94,0,0,1-2.45,2.25C406.68,173.83,401.44,176.26,396.23,178.74Z"/><path class="cls-21" d="M408.13,185.79c-1-1.36-2.17-2.27-2.35-3.34-.22-1.28.05-3.64.73-3.89a38.22,38.22,0,0,1,9.69-2.43c2.12-.2,2.38,1.81.94,3C414.33,181.5,411.25,183.52,408.13,185.79Z"/></svg>