<?xml version="1.0" encoding="utf-8"?>
<!-- Generator: Adobe Illustrator 21.0.2, SVG Export Plug-In . SVG Version: 6.00 Build 0)  -->
<svg version="1.1" id="Capa_1" xmlns="http://www.w3.org/2000/svg" xmlns:xlink="http://www.w3.org/1999/xlink" x="0px" y="0px"
	 viewBox="0 0 54.7 60" style="enable-background:new 0 0 54.7 60;" xml:space="preserve">
<style type="text/css">
	.st0{fill:#202020;}
	.st1{fill:#A8A8A8;}
	.st2{fill:#0F0F0F;}
	.st3{fill:#FBFBFB;}
	.st4{fill:#FEFEFE;}
</style>
<title>cadillac</title>
<g>
	<path class="st0" d="M30.6,11.4c0.2-0.1,0.3-0.2,0.5-0.3c0.3,0.2,0.5,0.2,0.8,0c0.3-0.2,0.7-0.4,1-0.6c0.6-0.4,1.3-0.7,1.9-1.1
		c0.7-0.4,1.5-0.9,2.2-1.3c0.6-0.3,1.2-0.7,1.8-1c0.7-0.4,1.3-0.8,2-1.2c1.2-0.7,2.3-1.4,3.5-2c0.4-0.2,0.8-0.5,1.2-0.7
		c0.3-0.2,0.6-0.3,1-0.5c0,0.1,0,0.2,0,0.3c0,3.8,0,7.5,0,11.3c0,0.8-0.2,1.2-0.9,1.6c-1,0.5-1.8,1.1-2.8,1.6
		c-0.5,0.3-1,0.5-1.5,0.8c-7.7,4.5-15.5,8.9-23.2,13.4c-2,1.2-4,2.3-6,3.5c-0.1,0.1-0.2,0.1-0.3,0.2c-0.1,0.1-0.2,0.1-0.3,0.2
		c-0.8,0.5-1.6,1-2.4,1.4c-0.1,0-0.2-0.1-0.3-0.1c0-0.9,0-1.8,0-2.6c0-1.4,0-2.9-0.1-4.3c0-0.2,0.1-0.4,0.1-0.6
		c0-1.5-0.1-3.1-0.1-4.6c0-0.1,0.1-0.3,0.2-0.4c0.4-0.3,0.8-0.5,1.3-0.8c0.8-0.5,1.6-0.9,2.4-1.4c0.6-0.4,1.3-0.7,1.9-1.1
		c0.5-0.3,1-0.6,1.5-0.9c0.4-0.2,0.8-0.4,1.2-0.7c0.8-0.5,1.7-1,2.5-1.5c0.6-0.3,1.1-0.6,1.7-1c0.9-0.5,1.9-1.1,2.8-1.6
		c0.3-0.2,0.5-0.4,0.8-0.5c0.3-0.2,0.6-0.3,0.9-0.4c0.3-0.2,0.6-0.4,1-0.6c0,0,0,0,0,0c0,0,0,0,0,0c1.1-0.6,2.1-1.3,3.2-1.9
		C30.4,11.8,30.5,11.7,30.6,11.4z M46.2,5.9c0-0.2,0-0.4,0-0.6c-0.3,0.2-0.6,0.4-0.9,0.6C45.2,5.9,45,6,44.9,6.1
		c-0.1,0.1-0.2,0.1-0.4,0.2c-0.1,0-0.1,0.1-0.2,0.1c0-0.7,0-1.5,0-2.3c-0.8,0.4-1.4,0.8-2.1,1.2c-0.1,0-0.1,0.1-0.1,0.2
		c0,0.7,0,1.4,0,2.1c0.8-0.4,1.5-0.8,2.2-1.2c0,0.6,0,1.2,0,1.8c0,0.2,0,0.4,0,0.7c0.3-0.2,0.5-0.3,0.7-0.5c0,0,0.1-0.1,0.1-0.1
		c0.2-0.1,0.3-0.2,0.5-0.3c0.1,0,0.1-0.1,0.2-0.1c0.1-0.1,0.2-0.2,0.3-0.3C46.2,7.1,46.2,6.5,46.2,5.9z M34.3,9.9
		c-0.3,0.2-0.6,0.3-0.8,0.5c0,0-0.1,0-0.1,0.1c-0.1,0.1-0.2,0.1-0.3,0.2c-1.2,0.7-2.4,1.4-3.6,2.1c-4.5,2.6-9.1,5.2-13.6,7.8
		c-0.2,0.1-0.3,0.3-0.3,0.5c0,0.5,0,1.1,0,1.6c0,0.1,0,0.3-0.1,0.3c-0.7,0.4-1.4,0.8-2.1,1.2c0-0.8,0-1.5,0-2.2
		c-0.7,0.4-1.4,0.8-2.1,1.2c-0.1,0-0.1,0.1-0.1,0.2c0,0.7,0,1.3,0,2c0.7-0.4,1.5-0.8,2.2-1.3c0,0.9,0,1.7,0,2.6
		c0.8-0.4,1.5-0.8,2.2-1.3c0,0.8,0,1.6,0,2.4c0,0.1,0,0.2-0.1,0.2c-0.7,0.4-1.4,0.8-2.1,1.2c0-0.9,0-1.7,0-2.6
		c-0.8,0.4-1.5,0.8-2.2,1.3c0-0.9,0-1.7,0-2.5c-0.2,0.1-0.4,0.2-0.6,0.3c-0.4,0.3-1,0.4-1.3,0.8c-0.2,0.4-0.1,1-0.1,1.5
		c0,0.3,0,0.6,0,1c0.7-0.4,1.3-0.7,1.9-1.1c0,0.9,0,1.7,0,2.5c0.8-0.4,1.5-0.8,2.2-1.3c0,0.9,0,1.7,0,2.6c0.8-0.4,1.5-0.8,2.2-1.3
		c0,0.8,0,1.5,0,2.2c0.2-0.1,0.3-0.1,0.4-0.2c1.3-0.8,2.7-1.5,4-2.3c6.5-3.7,12.9-7.5,19.4-11.2c0.5-0.3,0.8-0.6,0.6-1.1
		c0-0.1,0-0.2,0-0.4c0-0.4-0.1-0.8,0.1-1.1c0.2-0.3,0.6-0.4,0.9-0.6c0.4-0.2,0.8-0.5,1.2-0.7c0,0.8,0,1.5,0,2.2
		c0.7-0.4,1.4-0.8,2-1.2c0.1,0,0.1-0.1,0.1-0.2c0-0.7,0-1.4,0-2.1c-0.8,0.4-1.5,0.8-2.2,1.3c0-0.9,0-1.7,0-2.5
		c-0.8,0.4-1.5,0.8-2.2,1.3c0-0.8,0-1.6,0-2.3c0-0.1,0.1-0.3,0.2-0.3c0.6-0.3,1.2-0.7,1.7-1c0.1-0.1,0.2-0.2,0.2-0.3
		c0-0.8,0-1.5,0-2.4c-0.8,0.4-1.5,0.8-2.2,1.3c0-0.8,0-1.5,0-2.2c-0.2,0.1-0.3,0.2-0.5,0.3C37.7,8,36,8.9,34.3,9.9c0,0,0-0.1,0-0.1
		C34.2,9.9,34.3,9.9,34.3,9.9z M44.4,11.5c0,0.9,0,1.7,0,2.6c0.6-0.4,1.2-0.7,1.7-1c0.1,0,0.1-0.2,0.1-0.3c0-0.7,0-1.4,0-2
		c0-0.1,0-0.2,0-0.3C45.6,10.8,45,11.1,44.4,11.5c0-0.8,0-1.7,0-2.5c-0.7,0.4-1.4,0.8-2.1,1.2c-0.1,0-0.1,0.2-0.1,0.3
		c0,0.5,0,1.1,0,1.6c0,0.2,0,0.4,0,0.7C42.9,12.3,43.6,11.9,44.4,11.5z M11,35.5c0.7-0.4,1.4-0.8,2.1-1.2c0.1,0,0.1-0.2,0.1-0.2
		c0-0.7,0-1.3,0-2.1c-0.8,0.4-1.5,0.8-2.2,1.3c0-0.9,0-1.7,0-2.5c-0.6,0.4-1.2,0.7-1.8,1c0,0-0.1,0.1-0.1,0.2c0,0.8,0,1.6,0,2.4
		c0.7-0.4,1.3-0.7,1.9-1.1C11,34,11,34.7,11,35.5z"/>
	<path class="st1" d="M9.1,36.9c0.8-0.5,1.6-1,2.4-1.4c0.1-0.1,0.2-0.1,0.3-0.2c0,1.3,0,2.5,0,3.8c0,1.3,0,2.5,0,3.8
		c0,4.7,0,9.5,0,14.2c0,0.5-0.3,0.8-0.7,1c-0.8,0.4-1.7,0.3-2.5-0.1C8.2,57.8,8,57.5,8,57c0-11.2,0-22.4,0-33.6c0-1,0.4-1.5,1.5-1.6
		c0.7-0.1,1.4,0,2,0.4c-1,0.5-1.9,1.1-2.9,1.6c-0.3,0.2-0.4,0.3-0.4,0.7c0,4,0,8,0,11.9c0,0.4,0.2,0.5,0.4,0.6C8.8,37,9,37,9.1,36.9
		z"/>
	<path class="st1" d="M42.9,17.5c0.9-0.5,1.8-1.1,2.8-1.6c0.7-0.3,0.9-0.8,0.9-1.6c0-3.8,0-7.5,0-11.3c0-0.1,0-0.2,0-0.3
		c-0.1-0.3-0.3-0.3-0.6-0.2c-1,0.6-2.1,1.2-3.1,1.8c0-0.5,0-1,0.1-1.5c0-0.4,0.3-0.6,0.6-0.8c0.9-0.4,1.7-0.4,2.6,0
		c0.4,0.2,0.6,0.5,0.6,1c0,2.2,0,4.4,0,6.6c0,9,0,18,0,27c0,1-0.2,1.4-1.3,1.6c-0.7,0.2-1.5,0.1-2.1-0.3c-0.3-0.2-0.4-0.4-0.4-0.8
		c0-6.5,0-12.9,0-19.4C42.8,17.6,42.9,17.5,42.9,17.5z"/>
	<path class="st2" d="M9.1,36.9C9,37,8.8,37,8.7,37c-0.3-0.1-0.4-0.2-0.4-0.6c0-4,0-8,0-11.9c0-0.4,0.1-0.5,0.4-0.7
		c1-0.5,1.9-1,2.9-1.6c2.3-1.3,4.7-2.6,7-3.9c3.9-2.2,7.8-4.5,11.7-6.8c0.1-0.1,0.2-0.1,0.3-0.1c-0.1,0.2-0.1,0.4-0.4,0.6
		c-1.1,0.6-2.1,1.3-3.2,1.9l0,0c-0.3,0.2-0.6,0.4-1,0.6c-0.3,0.1-0.6,0.2-0.9,0.4c-0.3,0.2-0.5,0.4-0.8,0.5
		c-0.9,0.5-1.9,1.1-2.8,1.6c-0.6,0.3-1.1,0.6-1.7,1c-0.8,0.5-1.7,1-2.5,1.5c-0.4,0.2-0.8,0.5-1.2,0.7c-0.5,0.3-1,0.6-1.5,0.9
		c-0.6,0.4-1.3,0.7-1.9,1.1c-0.8,0.5-1.6,0.9-2.4,1.4C9.9,23.7,9.4,24,9,24.3c-0.1,0.1-0.2,0.2-0.2,0.4c0,1.5,0.1,3.1,0.1,4.6
		c0,0.2-0.1,0.4-0.1,0.6c0,1.4,0,2.9,0.1,4.3c0,0.9,0,1.8,0,2.6C8.9,36.8,9,36.9,9.1,36.9z"/>
	<path class="st2" d="M42.8,4.3c1-0.6,2.1-1.2,3.1-1.8c0.3-0.2,0.5-0.1,0.6,0.2c-0.3,0.2-0.6,0.3-1,0.5c-0.4,0.2-0.8,0.4-1.2,0.7
		c-1.2,0.7-2.3,1.3-3.5,2c-0.7,0.4-1.3,0.8-2,1.2c-0.6,0.3-1.2,0.7-1.8,1c-0.7,0.4-1.5,0.9-2.2,1.3c-0.6,0.4-1.3,0.7-1.9,1.1
		c-0.4,0.2-0.7,0.4-1,0.6c-0.3,0.2-0.5,0.2-0.8,0c1.5-0.8,2.9-1.7,4.4-2.5C37.9,7.1,40.3,5.7,42.8,4.3z"/>
	<path class="st3" d="M33.4,10.4c0.3-0.2,0.6-0.3,0.8-0.5c0,0,0,0,0.1,0C36,8.9,37.7,8,39.4,7c0.2-0.1,0.3-0.2,0.5-0.3
		c0,0.7,0,1.5,0,2.2c0.8-0.4,1.5-0.8,2.2-1.3c0,0.8,0,1.6,0,2.4c0,0.1-0.1,0.3-0.2,0.3c-0.6,0.3-1.2,0.7-1.7,1
		c-0.1,0.1-0.2,0.2-0.2,0.3c0,0.8,0,1.5,0,2.3c0.7-0.4,1.4-0.8,2.2-1.3c0,0.9,0,1.7,0,2.5c0.8-0.4,1.5-0.8,2.2-1.3
		c0,0.7,0,1.4,0,2.1c0,0.1-0.1,0.1-0.1,0.2c-0.7,0.4-1.3,0.8-2,1.2c0-0.7,0-1.4,0-2.2c-0.5,0.3-0.8,0.5-1.2,0.7
		c-0.3,0.2-0.8,0.3-0.9,0.6c-0.2,0.3,0,0.7-0.1,1.1c0,0.1,0,0.3,0,0.4c0.1,0.6-0.2,0.9-0.6,1.1c-6.5,3.7-12.9,7.4-19.4,11.2
		c-1.3,0.8-2.7,1.5-4,2.3c-0.1,0.1-0.2,0.1-0.4,0.2c0-0.7,0-1.4,0-2.2c-0.8,0.4-1.5,0.8-2.2,1.3c0-0.9,0-1.7,0-2.6
		c-0.8,0.4-1.5,0.8-2.2,1.3c0-0.8,0-1.7,0-2.5c-0.6,0.4-1.2,0.7-1.9,1.1c0-0.4,0-0.7,0-1c0-0.5-0.2-1.1,0.1-1.5
		c0.2-0.4,0.8-0.6,1.3-0.8c0.2-0.1,0.3-0.2,0.6-0.3c0,0.9,0,1.7,0,2.5c0.7-0.4,1.5-0.8,2.2-1.3c0,0.9,0,1.7,0,2.6
		c0.7-0.4,1.4-0.8,2.1-1.2c0.1,0,0.1-0.1,0.1-0.2c0-0.8,0-1.6,0-2.4c-0.7,0.4-1.4,0.8-2.2,1.3c0-0.9,0-1.7,0-2.6
		c-0.8,0.4-1.5,0.9-2.2,1.3c0-0.7,0-1.4,0-2c0-0.1,0.1-0.2,0.1-0.2c0.7-0.4,1.3-0.8,2.1-1.2c0,0.8,0,1.5,0,2.2
		c0.8-0.4,1.4-0.8,2.1-1.2c0.1,0,0.1-0.2,0.1-0.3c0-0.5,0-1.1,0-1.6c0-0.2,0.1-0.4,0.3-0.5c4.5-2.6,9.1-5.2,13.6-7.8
		c1.2-0.7,2.4-1.4,3.6-2.1c0.1-0.1,0.2-0.1,0.3-0.2C33.3,10.5,33.4,10.4,33.4,10.4z M26,23.6c0.3-0.2,0.7-0.4,1-0.6
		c0.2-0.1,0.3-0.2,0.3-0.5c0-1.8,0-3.7,0-5.5c0-0.1,0-0.2,0-0.3c-0.3,0.2-0.6,0.4-0.9,0.5c-0.2,0.1-0.2,0.2-0.2,0.4c0,1,0,2,0,3
		c0,0.2,0,0.5,0,0.7c0,0,0,0-0.1,0c-0.6-1-1.2-1.9-1.8-2.9c-0.4,0.2-0.7,0.3-1,0.5c-0.2,0.1-0.4,0.3-0.4,0.6c0,1.8,0,3.6,0,5.4
		c0,0.1,0,0.2,0,0.4c0.3-0.2,0.6-0.4,0.9-0.5c0.2-0.1,0.2-0.2,0.2-0.4c0-0.7,0-1.5,0-2.2c0-0.6,0-1.2,0-1.9
		C24.6,21.5,25.3,22.6,26,23.6z M37.8,16.8c0.4-0.2,0.7-0.4,1-0.6C39,16.1,39,16,39,15.8c0-1.8,0-3.7,0-5.5c0-0.1,0-0.2,0-0.3
		c-0.3,0.2-0.6,0.4-0.9,0.5c-0.2,0.1-0.3,0.2-0.3,0.4c0,0.6,0,1.2,0,1.8c0,0.1,0,0.2-0.1,0.3c-0.6,0.4-1.2,0.7-1.9,1.1
		c0-0.8,0-1.5,0-2.3c-0.3,0.2-0.6,0.4-1,0.5c-0.2,0.1-0.3,0.2-0.3,0.4c0,1.8,0,3.7,0,5.5c0,0.1,0,0.2,0,0.3c0.4-0.2,0.7-0.4,1-0.6
		c0.2-0.1,0.2-0.2,0.2-0.4c0-0.7,0-1.4,0-2c0-0.1,0-0.3,0.1-0.3c0.6-0.4,1.2-0.7,1.9-1.1C37.8,15.1,37.8,15.9,37.8,16.8z M30.3,20.9
		c0.2,0,0.3,0,0.4-0.1c1.3-0.3,2.3-1.1,2.9-2.2c0.3-0.5,0.4-1,0.3-1.5c-0.1-0.6-0.3-0.8-0.9-0.8c-0.3,0-0.7,0.1-1,0.1
		c-0.4,0-0.5-0.2-0.4-0.5c0.1-0.4,0.4-0.6,0.7-0.8c0.3-0.2,0.7-0.3,1.1-0.5c0.1-0.3,0.2-0.8,0.2-1.2c0,0-0.1-0.1-0.1-0.1
		c-0.5,0.2-1,0.4-1.4,0.6c-1,0.7-1.8,1.5-1.9,2.8c0,0.7,0.3,1.1,1.1,1.1c0.2,0,0.4,0,0.6-0.1c0.5-0.1,0.7,0.2,0.5,0.7
		c-0.1,0.2-0.2,0.4-0.4,0.6c-0.5,0.4-1,0.6-1.7,0.7C30.4,20,30.4,20.4,30.3,20.9z M19.7,21.1c-1,0.6-2,1.1-2.9,1.7
		c-0.2,0.1-0.3,0.2-0.3,0.5c0,1.8,0,3.6,0,5.4c0,0.1,0,0.3,0,0.4c0.4-0.2,0.7-0.4,1-0.6c0.1-0.1,0.2-0.2,0.2-0.4c0-0.6,0-1.3,0-1.9
		c0-0.1,0.1-0.3,0.2-0.4c0.5-0.3,1-0.6,1.5-0.9c0.1-0.1,0.2-0.2,0.2-0.2c0-0.3,0-0.6,0-1c-0.6,0.4-1.2,0.7-1.9,1.1
		c0-0.4,0-0.8,0-1.1c0-0.1,0.1-0.3,0.2-0.4c0.3-0.2,0.6-0.4,1-0.6c0.9-0.5,0.9-0.5,0.8-1.5C19.7,21.2,19.7,21.2,19.7,21.1z
		 M29.4,15.5c-0.3,0.2-0.6,0.4-1,0.5c-0.2,0.1-0.2,0.2-0.2,0.4c0,1.9,0,3.7,0,5.6c0,0.1,0,0.1,0,0.2c0.4-0.2,0.7-0.4,1.1-0.6
		c0.1,0,0.1-0.2,0.1-0.3C29.4,19.5,29.4,17.5,29.4,15.5z M21.8,19.9c-0.4,0.2-0.7,0.4-1,0.6c-0.2,0.1-0.2,0.2-0.2,0.4
		c0,1.8,0,3.7,0,5.5c0,0.1,0,0.2,0,0.3c0.4-0.2,0.7-0.4,1-0.6c0.2-0.1,0.2-0.2,0.2-0.4c0-1.2,0-2.3,0-3.5
		C21.8,21.5,21.8,20.7,21.8,19.9z"/>
	<path class="st3" d="M44.4,11.5c-0.8,0.4-1.5,0.8-2.2,1.3c0-0.3,0-0.5,0-0.7c0-0.5,0-1.1,0-1.6c0-0.1,0-0.2,0.1-0.3
		c0.7-0.4,1.4-0.8,2.1-1.2C44.3,9.8,44.3,10.6,44.4,11.5c0.6-0.3,1.2-0.7,1.8-1c0,0.1,0,0.2,0,0.3c0,0.7,0,1.4,0,2
		c0,0.1-0.1,0.2-0.1,0.3c-0.6,0.3-1.1,0.7-1.7,1C44.4,13.2,44.4,12.3,44.4,11.5z"/>
	<path class="st3" d="M11,35.5c0-0.8,0-1.5,0-2.2c-0.6,0.4-1.2,0.7-1.9,1.1c0-0.8,0-1.6,0-2.4c0-0.1,0-0.1,0.1-0.2
		c0.6-0.3,1.2-0.7,1.8-1c0,0.9,0,1.7,0,2.5c0.7-0.4,1.5-0.8,2.2-1.3c0,0.7,0,1.4,0,2.1c0,0.1-0.1,0.2-0.1,0.2
		C12.4,34.7,11.8,35.1,11,35.5z"/>
	<path class="st3" d="M44.4,6.4c-0.7,0.4-1.5,0.8-2.2,1.2c0-0.7,0-1.4,0-2.1c0-0.1,0.1-0.2,0.1-0.2c0.7-0.4,1.4-0.8,2.1-1.2
		C44.4,4.9,44.4,5.7,44.4,6.4C44.4,6.4,44.4,6.4,44.4,6.4z"/>
	<path class="st4" d="M44.4,6.4C44.4,6.4,44.4,6.4,44.4,6.4c0.1,0,0.1-0.1,0.2-0.1c0,0,0.1,0.1,0.1,0.1c0.1-0.1,0.2-0.2,0.3-0.3
		C45,6,45.2,5.9,45.3,5.8c0.3,0,0.6,0.1,0.9,0.1c0,0.6,0,1.2,0,1.8c-0.2,0-0.4,0.1-0.3,0.3c-0.1,0-0.1,0.1-0.2,0.1
		c-0.1-0.2-0.3-0.3-0.4,0c0,0.1-0.1,0.2-0.1,0.3c0,0-0.1,0.1-0.1,0.1c-0.2-0.3-0.5-0.3-0.7-0.2C44.4,7.6,44.4,7,44.4,6.4z"/>
	<path class="st3" d="M44.4,8.2c0.3-0.1,0.6-0.1,0.7,0.2c-0.2,0.1-0.5,0.3-0.7,0.5C44.4,8.6,44.4,8.4,44.4,8.2z"/>
	<path class="st3" d="M46.2,5.9c-0.3,0-0.6-0.1-0.9-0.1c0.3-0.2,0.5-0.3,0.9-0.6C46.2,5.5,46.2,5.7,46.2,5.9z"/>
	<path class="st3" d="M45.2,8.4c0-0.1,0.1-0.2,0.1-0.3c0.1-0.3,0.2-0.2,0.4,0C45.6,8.2,45.4,8.3,45.2,8.4z"/>
	<path class="st3" d="M44.9,6.1c-0.1,0.1-0.2,0.2-0.3,0.3c0,0-0.1-0.1-0.1-0.1C44.7,6.2,44.8,6.1,44.9,6.1z"/>
	<path class="st3" d="M45.9,8c-0.1-0.3,0.1-0.3,0.3-0.3C46.1,7.8,46,7.9,45.9,8z"/>
	<path class="st2" d="M34.3,9.9C34.3,9.9,34.3,9.9,34.3,9.9C34.3,9.9,34.2,9.9,34.3,9.9C34.3,9.9,34.3,9.9,34.3,9.9z"/>
	<path class="st2" d="M27,13.9C27,13.9,27,13.9,27,13.9C27,13.9,27,13.9,27,13.9C27,13.9,27,13.9,27,13.9z"/>
	<path class="st2" d="M33.4,10.4c0,0-0.1,0-0.1,0.1C33.3,10.5,33.4,10.4,33.4,10.4z"/>
	<path class="st2" d="M26,23.6c-0.7-1.1-1.3-2.1-2-3.2c0,0.7,0,1.3,0,1.9c0,0.7,0,1.5,0,2.2c0,0.2,0,0.3-0.2,0.4
		c-0.3,0.1-0.6,0.3-0.9,0.5c0-0.1,0-0.2,0-0.4c0-1.8,0-3.6,0-5.4c0-0.3,0.2-0.5,0.4-0.6c0.3-0.2,0.7-0.3,1-0.5
		c0.6,0.9,1.2,1.9,1.8,2.9c0,0,0,0,0.1,0c0-0.2,0-0.5,0-0.7c0-1,0-2,0-3c0-0.2,0.1-0.3,0.2-0.4c0.3-0.1,0.5-0.3,0.9-0.5
		c0,0.1,0,0.2,0,0.3c0,1.8,0,3.7,0,5.5c0,0.2-0.1,0.4-0.3,0.5C26.6,23.2,26.3,23.4,26,23.6z"/>
	<path class="st2" d="M37.8,16.8c0-0.9,0-1.7,0-2.5c-0.7,0.4-1.3,0.7-1.9,1.1c-0.1,0-0.1,0.2-0.1,0.3c0,0.7,0,1.4,0,2
		c0,0.2,0,0.3-0.2,0.4c-0.3,0.2-0.6,0.4-1,0.6c0-0.1,0-0.2,0-0.3c0-1.8,0-3.7,0-5.5c0-0.2,0.1-0.3,0.3-0.4c0.3-0.2,0.6-0.3,1-0.5
		c0,0.8,0,1.5,0,2.3c0.7-0.4,1.3-0.7,1.9-1.1c0.1,0,0.1-0.2,0.1-0.3c0-0.6,0-1.2,0-1.8c0-0.2,0.1-0.3,0.3-0.4
		c0.3-0.1,0.6-0.3,0.9-0.5c0,0.1,0,0.2,0,0.3c0,1.8,0,3.7,0,5.5c0,0.2,0,0.3-0.2,0.4C38.5,16.4,38.2,16.6,37.8,16.8z"/>
	<path class="st2" d="M30.3,20.9c0.1-0.5,0.2-0.9,0.3-1.3c0.6,0,1.2-0.2,1.7-0.7c0.2-0.2,0.3-0.4,0.4-0.6c0.2-0.5,0-0.8-0.5-0.7
		c-0.2,0-0.4,0.1-0.6,0.1c-0.7,0-1.1-0.3-1.1-1.1c0.1-1.3,0.8-2.2,1.9-2.8c0.4-0.3,0.9-0.4,1.4-0.6c0,0,0.1,0.1,0.1,0.1
		c-0.1,0.4-0.2,0.8-0.2,1.2c-0.4,0.2-0.8,0.3-1.1,0.5c-0.3,0.2-0.6,0.4-0.7,0.8c-0.1,0.4,0,0.5,0.4,0.5c0.3,0,0.7-0.1,1-0.1
		c0.6,0,0.9,0.2,0.9,0.8c0.1,0.6-0.1,1.1-0.3,1.5c-0.6,1.2-1.6,1.9-2.9,2.2C30.5,20.8,30.4,20.8,30.3,20.9z"/>
	<path class="st2" d="M19.7,21.1c0,0.1,0,0.1,0,0.1c0,1,0,1-0.8,1.5c-0.3,0.2-0.7,0.4-1,0.6c-0.1,0.1-0.2,0.2-0.2,0.4
		c0,0.4,0,0.7,0,1.1c0.6-0.4,1.2-0.7,1.9-1.1c0,0.4,0,0.7,0,1c0,0.1-0.1,0.2-0.2,0.2c-0.5,0.3-1,0.6-1.5,0.9
		c-0.1,0.1-0.2,0.2-0.2,0.4c0,0.6,0,1.3,0,1.9c0,0.1-0.1,0.3-0.2,0.4c-0.3,0.2-0.6,0.4-1,0.6c0-0.2,0-0.3,0-0.4c0-1.8,0-3.6,0-5.4
		c0-0.2,0.1-0.3,0.3-0.5C17.7,22.3,18.7,21.7,19.7,21.1z"/>
	<path class="st2" d="M29.4,15.5c0,2,0,3.9,0,5.9c0,0.1-0.1,0.2-0.1,0.3c-0.3,0.2-0.7,0.4-1.1,0.6c0-0.1,0-0.2,0-0.2
		c0-1.9,0-3.7,0-5.6c0-0.2,0.1-0.3,0.2-0.4C28.8,15.9,29.1,15.7,29.4,15.5z"/>
	<path class="st2" d="M21.8,19.9c0,0.8,0,1.6,0,2.3c0,1.2,0,2.3,0,3.5c0,0.2,0,0.3-0.2,0.4c-0.3,0.2-0.6,0.4-1,0.6
		c0-0.1,0-0.2,0-0.3c0-1.8,0-3.7,0-5.5c0-0.2,0.1-0.3,0.2-0.4C21.2,20.3,21.5,20.1,21.8,19.9z"/>
</g>
</svg>
