<svg id="Layer_1" data-name="Layer 1" xmlns="http://www.w3.org/2000/svg" viewBox="0 0 240.39 226.41"><defs><style>.cls-1{opacity:0.5;}.cls-2{fill:#fff;}</style></defs><title>Mesa de trabajo 1</title><g class="cls-1"><path class="cls-2" d="M38.55,156.33a.5.5,0,0,0-.5.5v1a.5.5,0,0,0,1,0v-1A.5.5,0,0,0,38.55,156.33Z"/><path class="cls-2" d="M215,110.5c0-.23,0-.45,0-.68A38,38,0,0,0,180.79,72a40,40,0,0,0-57.94-18.15A40.5,40.5,0,0,0,46.05,71.69c-18.08,5.53-31,20.18-31,37.39a34.14,34.14,0,0,0,2.12,11.83,30.5,30.5,0,0,0,30.38,27.92h138A30.51,30.51,0,0,0,215,110.5Z"/></g></svg>